<?xml version="1.0" standalone="no"?>
<!DOCTYPE svg PUBLIC "-//W3C//DTD SVG 20010904//EN"
 "http://www.w3.org/TR/2001/REC-SVG-20010904/DTD/svg10.dtd">
<svg version="1.0" xmlns="http://www.w3.org/2000/svg"
 width="512.000000pt" height="512.000000pt" viewBox="0 0 512.000000 512.000000"
 preserveAspectRatio="xMidYMid meet">
<metadata>
Created by potrace 1.14, written by Peter Selinger 2001-2017
</metadata>
<g transform="translate(0.000000,512.000000) scale(0.100000,-0.100000)"
fill="#000000" stroke="none">
<path d="M1314 4446 l-34 -34 0 -490 0 -490 -63 -44 c-293 -205 -476 -486
-554 -849 -27 -128 -24 -381 6 -518 87 -397 339 -727 696 -913 107 -56 260
-109 355 -124 14 -2 52 -8 85 -13 183 -27 430 0 621 69 323 117 618 388 754
692 20 45 41 78 50 79 20 1 250 1 272 0 16 -1 18 -39 20 -555 l3 -554 24 -26
c51 -54 145 -39 172 27 10 23 13 158 13 569 0 481 1 538 15 539 9 0 156 1 326
1 234 0 318 4 342 14 44 18 70 71 57 117 -5 18 -203 353 -441 743 -238 390
-433 713 -435 718 -2 6 151 9 382 9 212 -1 402 3 422 8 64 16 95 88 64 148
-30 57 -21 56 -536 57 -265 1 -476 5 -477 10 -2 5 -115 191 -251 414 -243 398
-248 405 -289 418 -34 11 -46 11 -75 -1 -30 -13 -58 -52 -214 -308 -98 -162
-184 -303 -190 -314 -6 -11 -30 -49 -52 -85 -23 -36 -55 -89 -72 -117 -33 -58
-31 -57 -79 -43 -79 22 -281 31 -411 17 -72 -8 -201 -37 -269 -62 -24 -8 -47
-13 -50 -9 -3 3 -6 198 -7 433 0 406 -1 429 -20 454 -40 55 -112 61 -160 13z
m1649 -414 c42 -70 85 -140 95 -157 9 -16 19 -32 22 -35 3 -3 11 -16 18 -30 7
-14 32 -56 57 -95 24 -38 45 -74 45 -80 0 -6 -56 -9 -152 -8 -184 2 -210 -2
-242 -34 -34 -34 -41 -74 -21 -117 28 -59 47 -63 314 -62 l240 1 23 -39 c13
-22 32 -54 43 -72 194 -318 258 -424 273 -449 9 -16 21 -34 25 -40 10 -14 233
-381 241 -397 3 -7 57 -96 120 -198 102 -164 112 -186 95 -190 -16 -4 -308 -5
-405 -1 -21 1 -21 4 -20 217 1 273 -8 300 -106 312 -33 3 -43 -1 -73 -31 l-35
-35 0 -233 0 -234 -120 0 -119 0 4 25 c14 89 18 127 19 225 9 510 -277 981
-734 1210 -41 20 -76 38 -78 40 -1 1 30 56 71 121 40 66 76 126 80 134 4 8 27
45 50 82 23 37 73 120 112 183 38 63 72 115 75 115 3 0 40 -57 83 -128z m-884
-626 c41 -3 76 -7 77 -9 2 -2 -42 -77 -97 -167 -124 -202 -317 -519 -344 -564
-11 -19 -62 -103 -113 -187 -266 -436 -322 -533 -322 -555 0 -38 17 -72 47
-91 25 -17 75 -18 828 -20 440 -1 806 -2 813 -2 35 -2 -107 -211 -217 -318
-275 -269 -641 -371 -1041 -289 -74 16 -226 78 -312 129 -174 103 -337 281
-431 472 -121 246 -145 538 -66 809 50 170 150 334 286 472 l88 88 5 -276 c5
-275 5 -277 29 -302 32 -34 80 -42 124 -21 59 28 61 41 60 403 l0 324 54 25
c49 21 163 56 225 69 13 2 64 7 113 10 50 4 92 8 93 10 2 1 9 1 15 -1 7 -2 45
-6 86 -9z m431 -133 c117 -63 230 -157 331 -273 67 -77 155 -237 193 -352 24
-71 27 -83 40 -158 3 -19 8 -48 11 -65 7 -37 7 -221 0 -255 -2 -14 -7 -41 -9
-60 -9 -62 -12 -71 -23 -78 -12 -7 -1460 -8 -1467 -1 -3 2 78 139 180 304 101
165 187 307 191 315 4 8 21 38 38 65 18 28 99 160 181 295 178 293 170 280
185 307 11 21 13 21 48 7 20 -8 65 -31 101 -51z"/>
<path d="M711 846 c-70 -20 -91 -125 -35 -177 l26 -24 779 -3 c683 -2 783 0
809 13 71 37 73 136 4 182 -24 15 -91 17 -789 17 -423 1 -777 -3 -794 -8z"/>
</g>
</svg>
